<svg xmlns="http://www.w3.org/2000/svg" width="512" height="512" viewBox="0 0 512 512">
  <defs>
    <linearGradient id="bg" x1="0" y1="0" x2="1" y2="1">
      <stop offset="0" stop-color="#ffe3ef"/>
      <stop offset="1" stop-color="#ffc9dd"/>
    </linearGradient>
    <linearGradient id="pig" x1="0" y1="0" x2="0" y2="1">
      <stop offset="0" stop-color="#ff9cbb"/>
      <stop offset="1" stop-color="#ff6f9c"/>
    </linearGradient>
    <linearGradient id="coin" x1="0" y1="0" x2="0" y2="1">
      <stop offset="0" stop-color="#ffd86b"/>
      <stop offset="1" stop-color="#ffb53d"/>
    </linearGradient>
  </defs>

  <rect width="512" height="512" rx="112" fill="url(#bg)"/>

  <!-- 떨어지는 동전 -->
  <circle cx="256" cy="118" r="34" fill="url(#coin)" stroke="#fff" stroke-opacity=".55" stroke-width="4"/>
  <text x="256" y="120" font-family="Arial, 'Malgun Gothic', sans-serif" font-size="40" font-weight="bold" fill="#fff" text-anchor="middle" dominant-baseline="central">₩</text>

  <!-- 귀 -->
  <path d="M182 198 L150 150 L214 176 Z" fill="#ff7da3"/>
  <path d="M330 198 L362 150 L298 176 Z" fill="#ff7da3"/>

  <!-- 다리 -->
  <rect x="196" y="372" width="40" height="46" rx="14" fill="#ff6f9c"/>
  <rect x="276" y="372" width="40" height="46" rx="14" fill="#ff6f9c"/>

  <!-- 몸통 -->
  <ellipse cx="256" cy="292" rx="150" ry="120" fill="url(#pig)"/>

  <!-- 동전 투입구 -->
  <rect x="232" y="188" width="48" height="13" rx="6" fill="#d65b85"/>

  <!-- 코(주둥이) -->
  <ellipse cx="256" cy="314" rx="64" ry="46" fill="#ffc1d6"/>
  <ellipse cx="236" cy="314" rx="11" ry="15" fill="#c75d86"/>
  <ellipse cx="276" cy="314" rx="11" ry="15" fill="#c75d86"/>

  <!-- 눈 -->
  <circle cx="212" cy="264" r="13" fill="#5a3a48"/>
  <circle cx="300" cy="264" r="13" fill="#5a3a48"/>
  <circle cx="216" cy="260" r="4.5" fill="#fff"/>
  <circle cx="304" cy="260" r="4.5" fill="#fff"/>

  <!-- 볼터치 -->
  <circle cx="178" cy="302" r="16" fill="#ff8fae" opacity=".55"/>
  <circle cx="334" cy="302" r="16" fill="#ff8fae" opacity=".55"/>

  <!-- 꼬리 -->
  <path d="M404 282 q28 -8 18 18 q-7 24 18 16" fill="none" stroke="#ff6f9c" stroke-width="12" stroke-linecap="round"/>
</svg>
